 <svg width="600" height="600" viewBox="0 0 600 600" xmlns="http://www.w3.org/2000/svg" > <g transform="rotate(11.624945032109148,300,300)"> <path stroke="red" stroke-width="1.8" fill="pink" d="M300,244.81132812425312C370.8013021394862,240.76453114541974,470.71079696368923,169.96718575969425,492.29648768679715,237.51908363415106C513.8898824284806,305.0950910487063,388.3905953877162,300.97317746481605,331.4807272285265,343.3295038006285C270.3274118150482,388.8441020232901,239.95066706348288,510.9714231730785,172.42813596544318,475.5876072179708C100.78117661443997,438.0424681037681,126.10361556709313,327.00480845608195,165.23702070638302,256.2128537044766C189.34979434533682,212.59307734438917,250.24036030112364,247.65544473674896,300,244.81132812425312" /> <line x1="300" y1="244.81132812425312" x2="370.8013021394862" y2="240.76453114541974" stroke-width="1.8" stroke="red" /> <line x1="492.29648768679715" y1="237.51908363415106" x2="470.71079696368923" y2="169.96718575969425" stroke-width="1.8" stroke="red" stroke-dasharray="3.6" /> <circle cx="370.8013021394862" cy="240.76453114541974" r="1.8" fill="red" /> <circle cx="470.71079696368923" cy="169.96718575969425" r="1.8" fill="red" /> <circle cx="300" cy="244.81132812425312" r="3.6" fill="red" /> <line x1="492.29648768679715" y1="237.51908363415106" x2="513.8898824284806" y2="305.0950910487063" stroke-width="1.8" stroke="red" /> <line x1="331.4807272285265" y1="343.3295038006285" x2="388.3905953877162" y2="300.97317746481605" stroke-width="1.8" stroke="red" stroke-dasharray="3.6" /> <circle cx="513.8898824284806" cy="305.0950910487063" r="1.8" fill="red" /> <circle cx="388.3905953877162" cy="300.97317746481605" r="1.8" fill="red" /> <circle cx="492.29648768679715" cy="237.51908363415106" r="3.6" fill="red" /> <line x1="331.4807272285265" y1="343.3295038006285" x2="270.3274118150482" y2="388.8441020232901" stroke-width="1.8" stroke="red" /> <line x1="172.42813596544318" y1="475.5876072179708" x2="239.95066706348288" y2="510.9714231730785" stroke-width="1.8" stroke="red" stroke-dasharray="3.6" /> <circle cx="270.3274118150482" cy="388.8441020232901" r="1.8" fill="red" /> <circle cx="239.95066706348288" cy="510.9714231730785" r="1.8" fill="red" /> <circle cx="331.4807272285265" cy="343.3295038006285" r="3.6" fill="red" /> <line x1="172.42813596544318" y1="475.5876072179708" x2="100.78117661443997" y2="438.0424681037681" stroke-width="1.8" stroke="red" /> <line x1="165.23702070638302" y1="256.2128537044766" x2="126.10361556709313" y2="327.00480845608195" stroke-width="1.8" stroke="red" stroke-dasharray="3.6" /> <circle cx="100.78117661443997" cy="438.0424681037681" r="1.8" fill="red" /> <circle cx="126.10361556709313" cy="327.00480845608195" r="1.8" fill="red" /> <circle cx="172.42813596544318" cy="475.5876072179708" r="3.6" fill="red" /> <line x1="165.23702070638302" y1="256.2128537044766" x2="189.34979434533682" y2="212.59307734438917" stroke-width="1.8" stroke="red" /> <line x1="300" y1="244.81132812425312" x2="250.24036030112364" y2="247.65544473674896" stroke-width="1.8" stroke="red" stroke-dasharray="3.6" /> <circle cx="189.34979434533682" cy="212.59307734438917" r="1.8" fill="red" /> <circle cx="250.24036030112364" cy="247.65544473674896" r="1.8" fill="red" /> <circle cx="165.23702070638302" cy="256.2128537044766" r="3.6" fill="red" /> </g> </svg> 
