
        <svg width="1000" height="1000" viewBox="0 0 1000 1000" xmlns="http://www.w3.org/2000/svg">
            <g transform="
                translate(500, 500)
                rotate(0)
            ">
                <path
                    stroke="green"
                    stroke-width="1"
                    fill="none"
                    d="M200,200C143.4314575050762,256.5685424949238,-157.57359312880715,242.42640687119285,-200,200C-256.5685424949238,143.4314575050762,-242.42640687119285,-157.57359312880715,-200,-200C-143.4314575050762,-256.5685424949238,157.57359312880715,-242.42640687119285,200,-200C256.5685424949238,-143.4314575050762,242.42640687119285,157.57359312880715,200,200"
                />
                
                        <g id="point-handle-0">
                            <line x1="200" y1="200" x2="143.4314575050762" y2="256.5685424949238" stroke-width="1" stroke="red" />
                            <line x1="-200" y1="200" x2="-157.57359312880715" y2="242.42640687119285" stroke-width="1" stroke="red" stroke-dasharray="2" />
                            <circle cx="143.4314575050762" cy="256.5685424949238" r="1" fill="red" />
                            <circle cx="-157.57359312880715" cy="242.42640687119285" r="1" fill="red" />
                            <circle cx="200" cy="200" r="2" fill="red" />
                        </g>
                    
                        <g id="point-handle-1">
                            <line x1="-200" y1="200" x2="-256.5685424949238" y2="143.4314575050762" stroke-width="1" stroke="grey" />
                            <line x1="-200" y1="-200" x2="-242.42640687119285" y2="-157.57359312880715" stroke-width="1" stroke="grey" stroke-dasharray="2" />
                            <circle cx="-256.5685424949238" cy="143.4314575050762" r="1" fill="grey" />
                            <circle cx="-242.42640687119285" cy="-157.57359312880715" r="1" fill="grey" />
                            <circle cx="-200" cy="200" r="2" fill="grey" />
                        </g>
                    
                        <g id="point-handle-2">
                            <line x1="-200" y1="-200" x2="-143.4314575050762" y2="-256.5685424949238" stroke-width="1" stroke="grey" />
                            <line x1="200" y1="-200" x2="157.57359312880715" y2="-242.42640687119285" stroke-width="1" stroke="grey" stroke-dasharray="2" />
                            <circle cx="-143.4314575050762" cy="-256.5685424949238" r="1" fill="grey" />
                            <circle cx="157.57359312880715" cy="-242.42640687119285" r="1" fill="grey" />
                            <circle cx="-200" cy="-200" r="2" fill="grey" />
                        </g>
                    
                        <g id="point-handle-3">
                            <line x1="200" y1="-200" x2="256.5685424949238" y2="-143.4314575050762" stroke-width="1" stroke="grey" />
                            <line x1="200" y1="200" x2="242.42640687119285" y2="157.57359312880715" stroke-width="1" stroke="grey" stroke-dasharray="2" />
                            <circle cx="256.5685424949238" cy="-143.4314575050762" r="1" fill="grey" />
                            <circle cx="242.42640687119285" cy="157.57359312880715" r="1" fill="grey" />
                            <circle cx="200" cy="-200" r="2" fill="grey" />
                        </g>
                    
            </g>
        </svg>
    
