 <svg width="600" height="600" viewBox="0 0 600 600" xmlns="http://www.w3.org/2000/svg" > <g transform="rotate(57.90073144294853,300,300)"> <path stroke="red" stroke-width="2" fill="pink" d="M300,106.98863329506958C367.957718597045,106.98863329506959,319.0010979072382,222.37119508968124,340.0011878526755,287.00282619395324C357.9979587749293,342.39119178368816,444.6198696019028,399.9704533639516,397.50371163969646,434.2023458797129C337.6570542750482,477.68348761409504,256.7654274270218,485.3602829604631,196.91877006237354,441.87914122608095C133.43818202764965,395.75779431606577,98.33958854223985,316.98093389065673,122.58701554567449,242.35502698332726C148.000290410477,164.14100930621493,217.76091500661232,106.98863329506956,300,106.98863329506958" /> <line x1="300" y1="106.98863329506958" x2="367.957718597045" y2="106.98863329506959" stroke-width="2" stroke="red" /> <line x1="340.0011878526755" y1="287.00282619395324" x2="319.0010979072382" y2="222.37119508968124" stroke-width="2" stroke="red" stroke-dasharray="4" /> <circle cx="367.957718597045" cy="106.98863329506959" r="2" fill="red" /> <circle cx="319.0010979072382" cy="222.37119508968124" r="2" fill="red" /> <circle cx="300" cy="106.98863329506958" r="4" fill="red" /> <line x1="340.0011878526755" y1="287.00282619395324" x2="357.9979587749293" y2="342.39119178368816" stroke-width="2" stroke="red" /> <line x1="397.50371163969646" y1="434.2023458797129" x2="444.6198696019028" y2="399.9704533639516" stroke-width="2" stroke="red" stroke-dasharray="4" /> <circle cx="357.9979587749293" cy="342.39119178368816" r="2" fill="red" /> <circle cx="444.6198696019028" cy="399.9704533639516" r="2" fill="red" /> <circle cx="340.0011878526755" cy="287.00282619395324" r="4" fill="red" /> <line x1="397.50371163969646" y1="434.2023458797129" x2="337.6570542750482" y2="477.68348761409504" stroke-width="2" stroke="red" /> <line x1="196.91877006237354" y1="441.87914122608095" x2="256.7654274270218" y2="485.3602829604631" stroke-width="2" stroke="red" stroke-dasharray="4" /> <circle cx="337.6570542750482" cy="477.68348761409504" r="2" fill="red" /> <circle cx="256.7654274270218" cy="485.3602829604631" r="2" fill="red" /> <circle cx="397.50371163969646" cy="434.2023458797129" r="4" fill="red" /> <line x1="196.91877006237354" y1="441.87914122608095" x2="133.43818202764965" y2="395.75779431606577" stroke-width="2" stroke="red" /> <line x1="122.58701554567449" y1="242.35502698332726" x2="98.33958854223985" y2="316.98093389065673" stroke-width="2" stroke="red" stroke-dasharray="4" /> <circle cx="133.43818202764965" cy="395.75779431606577" r="2" fill="red" /> <circle cx="98.33958854223985" cy="316.98093389065673" r="2" fill="red" /> <circle cx="196.91877006237354" cy="441.87914122608095" r="4" fill="red" /> <line x1="122.58701554567449" y1="242.35502698332726" x2="148.000290410477" y2="164.14100930621493" stroke-width="2" stroke="red" /> <line x1="300" y1="106.98863329506958" x2="217.76091500661232" y2="106.98863329506956" stroke-width="2" stroke="red" stroke-dasharray="4" /> <circle cx="148.000290410477" cy="164.14100930621493" r="2" fill="red" /> <circle cx="217.76091500661232" cy="106.98863329506956" r="2" fill="red" /> <circle cx="122.58701554567449" cy="242.35502698332726" r="4" fill="red" /> </g> </svg> 
