 <svg width="1000" height="800" viewBox="0 0 1000 800" xmlns="http://www.w3.org/2000/svg" > <g transform=""> <path stroke="blue" stroke-width="1" fill="none" d="M700,600C643.4314575050762,656.5685424949238,356.5685424949238,656.5685424949238,300,600C243.4314575050762,543.4314575050762,243.4314575050762,256.5685424949238,300,200C356.5685424949238,143.4314575050762,643.4314575050762,143.4314575050762,700,200C756.5685424949238,256.5685424949238,756.5685424949238,543.4314575050762,700,600" /> <rect x="0" y="0" width="1000" height="800" fill="none" stroke="black" stroke-width="1" stroke-dasharray="2" /> <line x1="700" y1="600" x2="643.4314575050762" y2="656.5685424949238" stroke-width="1" stroke="black" /> <line x1="300" y1="600" x2="356.5685424949238" y2="656.5685424949238" stroke-width="1" stroke="black" stroke-dasharray="2" /> <circle cx="643.4314575050762" cy="656.5685424949238" r="1" fill="black" /> <circle cx="356.5685424949238" cy="656.5685424949238" r="1" fill="black" /> <circle cx="700" cy="600" r="2" fill="black" /> <line x1="300" y1="600" x2="243.4314575050762" y2="543.4314575050762" stroke-width="1" stroke="black" /> <line x1="300" y1="200" x2="243.4314575050762" y2="256.5685424949238" stroke-width="1" stroke="black" stroke-dasharray="2" /> <circle cx="243.4314575050762" cy="543.4314575050762" r="1" fill="black" /> <circle cx="243.4314575050762" cy="256.5685424949238" r="1" fill="black" /> <circle cx="300" cy="600" r="2" fill="black" /> <line x1="300" y1="200" x2="356.5685424949238" y2="143.4314575050762" stroke-width="1" stroke="black" /> <line x1="700" y1="200" x2="643.4314575050762" y2="143.4314575050762" stroke-width="1" stroke="black" stroke-dasharray="2" /> <circle cx="356.5685424949238" cy="143.4314575050762" r="1" fill="black" /> <circle cx="643.4314575050762" cy="143.4314575050762" r="1" fill="black" /> <circle cx="300" cy="200" r="2" fill="black" /> <line x1="700" y1="200" x2="756.5685424949238" y2="256.5685424949238" stroke-width="1" stroke="black" /> <line x1="700" y1="600" x2="756.5685424949238" y2="543.4314575050762" stroke-width="1" stroke="black" stroke-dasharray="2" /> <circle cx="756.5685424949238" cy="256.5685424949238" r="1" fill="black" /> <circle cx="756.5685424949238" cy="543.4314575050762" r="1" fill="black" /> <circle cx="700" cy="200" r="2" fill="black" /> </g> </svg> 
