 <svg width="400" height="400" viewBox="0 0 400 400" xmlns="http://www.w3.org/2000/svg" > <g transform="rotate(15.090825775405392,200,200)"> <path stroke="red" stroke-width="1" fill="pink" d="M200,54.33921825209245C237.62016557910314,54.40068201298854,271.77173178647564,75.08362348007628,297.098260416091,102.90173958390892C321.2174805973468,129.39377396999947,336.35416497677835,164.36885342442255,332.61437062742993,200C329.16417115789693,232.87201154131102,304.1928609938203,257.6725937357107,278.65178608223744,278.6517860822374C256.0845525103324,297.18829386325035,229.0312102870837,305.7546828026098,200,308.9281637103195C166.04563988186212,312.63980757576144,126.47578690560385,321.8256681636965,102.04257900858566,297.9574209914144C77.53000909696527,274.0116468652996,88.3985576113619,234.26743594516205,88.4935097846067,200.00000000000003C88.58802009068316,165.89203017730944,81.85103348529373,129.6673141610178,102.5839424305074,102.58394243050748C125.48182393334628,72.67246989082186,162.33031219848,54.27767358187577,200,54.33921825209245" /> <line x1="200" y1="54.33921825209245" x2="237.62016557910314" y2="54.40068201298854" stroke-width="1" stroke="red" /> <line x1="297.098260416091" y1="102.90173958390892" x2="271.77173178647564" y2="75.08362348007628" stroke-width="1" stroke="red" stroke-dasharray="2" /> <circle cx="237.62016557910314" cy="54.40068201298854" r="1" fill="red" /> <circle cx="271.77173178647564" cy="75.08362348007628" r="1" fill="red" /> <circle cx="200" cy="54.33921825209245" r="2" fill="red" /> <line x1="297.098260416091" y1="102.90173958390892" x2="321.2174805973468" y2="129.39377396999947" stroke-width="1" stroke="red" /> <line x1="332.61437062742993" y1="200" x2="336.35416497677835" y2="164.36885342442255" stroke-width="1" stroke="red" stroke-dasharray="2" /> <circle cx="321.2174805973468" cy="129.39377396999947" r="1" fill="red" /> <circle cx="336.35416497677835" cy="164.36885342442255" r="1" fill="red" /> <circle cx="297.098260416091" cy="102.90173958390892" r="2" fill="red" /> <line x1="332.61437062742993" y1="200" x2="329.16417115789693" y2="232.87201154131102" stroke-width="1" stroke="red" /> <line x1="278.65178608223744" y1="278.6517860822374" x2="304.1928609938203" y2="257.6725937357107" stroke-width="1" stroke="red" stroke-dasharray="2" /> <circle cx="329.16417115789693" cy="232.87201154131102" r="1" fill="red" /> <circle cx="304.1928609938203" cy="257.6725937357107" r="1" fill="red" /> <circle cx="332.61437062742993" cy="200" r="2" fill="red" /> <line x1="278.65178608223744" y1="278.6517860822374" x2="256.0845525103324" y2="297.18829386325035" stroke-width="1" stroke="red" /> <line x1="200" y1="308.9281637103195" x2="229.0312102870837" y2="305.7546828026098" stroke-width="1" stroke="red" stroke-dasharray="2" /> <circle cx="256.0845525103324" cy="297.18829386325035" r="1" fill="red" /> <circle cx="229.0312102870837" cy="305.7546828026098" r="1" fill="red" /> <circle cx="278.65178608223744" cy="278.6517860822374" r="2" fill="red" /> <line x1="200" y1="308.9281637103195" x2="166.04563988186212" y2="312.63980757576144" stroke-width="1" stroke="red" /> <line x1="102.04257900858566" y1="297.9574209914144" x2="126.47578690560385" y2="321.8256681636965" stroke-width="1" stroke="red" stroke-dasharray="2" /> <circle cx="166.04563988186212" cy="312.63980757576144" r="1" fill="red" /> <circle cx="126.47578690560385" cy="321.8256681636965" r="1" fill="red" /> <circle cx="200" cy="308.9281637103195" r="2" fill="red" /> <line x1="102.04257900858566" y1="297.9574209914144" x2="77.53000909696527" y2="274.0116468652996" stroke-width="1" stroke="red" /> <line x1="88.4935097846067" y1="200.00000000000003" x2="88.3985576113619" y2="234.26743594516205" stroke-width="1" stroke="red" stroke-dasharray="2" /> <circle cx="77.53000909696527" cy="274.0116468652996" r="1" fill="red" /> <circle cx="88.3985576113619" cy="234.26743594516205" r="1" fill="red" /> <circle cx="102.04257900858566" cy="297.9574209914144" r="2" fill="red" /> <line x1="88.4935097846067" y1="200.00000000000003" x2="88.58802009068316" y2="165.89203017730944" stroke-width="1" stroke="red" /> <line x1="102.5839424305074" y1="102.58394243050748" x2="81.85103348529373" y2="129.6673141610178" stroke-width="1" stroke="red" stroke-dasharray="2" /> <circle cx="88.58802009068316" cy="165.89203017730944" r="1" fill="red" /> <circle cx="81.85103348529373" cy="129.6673141610178" r="1" fill="red" /> <circle cx="88.4935097846067" cy="200.00000000000003" r="2" fill="red" /> <line x1="102.5839424305074" y1="102.58394243050748" x2="125.48182393334628" y2="72.67246989082186" stroke-width="1" stroke="red" /> <line x1="200" y1="54.33921825209245" x2="162.33031219848" y2="54.27767358187577" stroke-width="1" stroke="red" stroke-dasharray="2" /> <circle cx="125.48182393334628" cy="72.67246989082186" r="1" fill="red" /> <circle cx="162.33031219848" cy="54.27767358187577" r="1" fill="red" /> <circle cx="102.5839424305074" cy="102.58394243050748" r="2" fill="red" /> </g> </svg> 
