
    <svg width="600" height="600" viewBox="0 0 600 600" xmlns="http://www.w3.org/2000/svg">
        <g transform="
            translate(300, 300)
            rotate(65.83170813215838)
        ">
            <line x1="0" y1="167.5434186373924" x2="-86.64525232877502" y2="167.5434186373924" stroke-width="1" stroke="green" /><line x1="125.76447131496593" y1="40.8633538165508" x2="98.98961586346896" y2="123.26788564987011" stroke-width="1" stroke="green" /><line x1="103.258189004216" y1="-142.12270448599818" x2="173.35567062010048" y2="-91.19390298598415" stroke-width="1" stroke="green" /><line x1="-112.3074591638681" y1="-154.5779563272027" x2="-42.20997754798363" y2="-205.50675782721672" stroke-width="1" stroke="green" /><line x1="-178.50693241933283" y1="58.00041825715752" x2="-205.2817878708298" y2="-24.40411357616179" stroke-width="1" stroke="green" />
            <circle cx="0" cy="167.5434186373924" r="4" fill="red" /><circle cx="125.76447131496593" cy="40.8633538165508" r="4" fill="red" /><circle cx="103.258189004216" cy="-142.12270448599818" r="4" fill="red" /><circle cx="-112.3074591638681" cy="-154.5779563272027" r="4" fill="red" /><circle cx="-178.50693241933283" cy="58.00041825715752" r="4" fill="red" />
            <circle cx="-86.64525232877502" cy="167.5434186373924" r="2" fill="black" /><circle cx="98.98961586346896" cy="123.26788564987011" r="2" fill="blue" /><circle cx="173.35567062010048" cy="-91.19390298598415" r="2" fill="blue" /><circle cx="-42.20997754798363" cy="-205.50675782721672" r="2" fill="blue" /><circle cx="-205.2817878708298" cy="-24.40411357616179" r="2" fill="blue" />
            <circle cx="-151.73207696783587" cy="140.40495009047683" r="2" fill="black" /><circle cx="86.64525232877502" cy="167.5434186373924" r="2" fill="blue" /><circle cx="152.5393267664629" cy="-41.54117801676851" r="2" fill="blue" /><circle cx="33.16070738833153" cy="-193.05150598601222" r="2" fill="blue" /><circle cx="-182.40494077975256" cy="-103.64915482718871" r="2" fill="blue" />
            <path
                stroke="cyan"
                stroke-width="1"
                fill="none"
                d="M0,167.5434186373924C86.64525232877502,167.5434186373924,98.98961586346896,123.26788564987011,125.76447131496593,40.8633538165508C152.5393267664629,-41.54117801676851,173.35567062010048,-91.19390298598415,103.258189004216,-142.12270448599818C33.16070738833153,-193.05150598601222,-42.20997754798363,-205.50675782721672,-112.3074591638681,-154.5779563272027C-182.40494077975256,-103.64915482718871,-205.2817878708298,-24.40411357616179,-178.50693241933283,58.00041825715752C-151.73207696783587,140.40495009047683,-86.64525232877502,167.5434186373924,0,167.5434186373924Z"
            />
        </g>
    </svg>

