
    <svg width="600" height="600" viewBox="0 0 600 600" xmlns="http://www.w3.org/2000/svg">
        <g transform="
            translate(300, 300)
            rotate(21.22005310129502)
        ">
            <line x1="0" y1="200" x2="-53.043297967908806" y2="200" stroke-width="1" stroke="green" /><line x1="141.42135623730948" y1="141.4213562373095" x2="103.91408054770255" y2="178.92863192691644" stroke-width="1" stroke="green" /><line x1="200" y1="1.2246467991473532e-14" x2="200" y2="53.04329796790882" stroke-width="1" stroke="green" /><line x1="141.4213562373095" y1="-141.42135623730948" x2="178.92863192691644" y2="-103.91408054770255" stroke-width="1" stroke="green" /><line x1="2.4492935982947064e-14" y1="-200" x2="53.04329796790883" y2="-200" stroke-width="1" stroke="green" /><line x1="-141.42135623730948" y1="-141.42135623730954" x2="-103.91408054770254" y2="-178.92863192691647" stroke-width="1" stroke="green" /><line x1="-200" y1="-3.6739403974420595e-14" x2="-200" y2="-53.04329796790884" stroke-width="1" stroke="green" /><line x1="-141.42135623730954" y1="141.42135623730948" x2="-178.92863192691647" y2="103.91408054770254" stroke-width="1" stroke="green" />
            <circle cx="0" cy="200" r="4" fill="red" /><circle cx="141.42135623730948" cy="141.4213562373095" r="4" fill="red" /><circle cx="200" cy="1.2246467991473532e-14" r="4" fill="red" /><circle cx="141.4213562373095" cy="-141.42135623730948" r="4" fill="red" /><circle cx="2.4492935982947064e-14" cy="-200" r="4" fill="red" /><circle cx="-141.42135623730948" cy="-141.42135623730954" r="4" fill="red" /><circle cx="-200" cy="-3.6739403974420595e-14" r="4" fill="red" /><circle cx="-141.42135623730954" cy="141.42135623730948" r="4" fill="red" />
            <circle cx="-53.043297967908806" cy="200" r="2" fill="black" /><circle cx="103.91408054770255" cy="178.92863192691644" r="2" fill="blue" /><circle cx="200" cy="53.04329796790882" r="2" fill="blue" /><circle cx="178.92863192691644" cy="-103.91408054770255" r="2" fill="blue" /><circle cx="53.04329796790883" cy="-200" r="2" fill="blue" /><circle cx="-103.91408054770254" cy="-178.92863192691647" r="2" fill="blue" /><circle cx="-200" cy="-53.04329796790884" r="2" fill="blue" /><circle cx="-178.92863192691647" cy="103.91408054770254" r="2" fill="blue" />
            <circle cx="-103.91408054770261" cy="178.9286319269164" r="2" fill="black" /><circle cx="53.043297967908806" cy="200" r="2" fill="blue" /><circle cx="178.9286319269164" cy="103.91408054770258" r="2" fill="blue" /><circle cx="200" cy="-53.04329796790879" r="2" fill="blue" /><circle cx="103.91408054770258" cy="-178.9286319269164" r="2" fill="blue" /><circle cx="-53.043297967908785" cy="-200" r="2" fill="blue" /><circle cx="-178.9286319269164" cy="-103.91408054770261" r="2" fill="blue" /><circle cx="-200" cy="53.04329796790877" r="2" fill="blue" />
            <path
                stroke="none"
                stroke-width="0"
                fill="grey"
                d="M0,200C53.043297967908806,200,103.91408054770255,178.92863192691644,141.42135623730948,141.4213562373095C178.9286319269164,103.91408054770258,200,53.04329796790882,200,1.2246467991473532e-14C200,-53.04329796790879,178.92863192691644,-103.91408054770255,141.4213562373095,-141.42135623730948C103.91408054770258,-178.9286319269164,53.04329796790883,-200,2.4492935982947064e-14,-200C-53.043297967908785,-200,-103.91408054770254,-178.92863192691647,-141.42135623730948,-141.42135623730954C-178.9286319269164,-103.91408054770261,-200,-53.04329796790884,-200,-3.6739403974420595e-14C-200,53.04329796790877,-178.92863192691647,103.91408054770254,-141.42135623730954,141.42135623730948C-103.91408054770261,178.9286319269164,-53.043297967908806,200,0,200Z"
            />
        </g>
    </svg>

