 <svg width="300" height="300" viewBox="0 0 300 300" xmlns="http://www.w3.org/2000/svg" > <g transform="rotate(38.15789817273617,150,150)"> <path stroke="red" stroke-width="2" fill="pink" d="M150,71.33934425656912C185.66944286202457,72.48994069644257,221.097090610973,89.37902782268065,231.6011566402696,123.48617697218978C241.71024637363857,156.3108212899364,219.71583117200072,187.5236539442506,192.04966699190743,207.8764014094948C163.72693627168212,228.71215522496703,127.34446844487523,240.89080882659476,97.68995528012132,221.9985998114796C62.08128405575381,199.31313349531555,36.562273391513976,157.52667139106578,50.410716515258656,117.64148026208508C63.686104967933105,79.4067558952346,109.54722087460149,70.03445077043551,150,71.33934425656912" /> <line x1="150" y1="71.33934425656912" x2="185.66944286202457" y2="72.48994069644257" stroke-width="2" stroke="red" /> <line x1="231.6011566402696" y1="123.48617697218978" x2="221.097090610973" y2="89.37902782268065" stroke-width="2" stroke="red" stroke-dasharray="4" /> <circle cx="185.66944286202457" cy="72.48994069644257" r="2" fill="red" /> <circle cx="221.097090610973" cy="89.37902782268065" r="2" fill="red" /> <circle cx="150" cy="71.33934425656912" r="4" fill="red" /> <line x1="231.6011566402696" y1="123.48617697218978" x2="241.71024637363857" y2="156.3108212899364" stroke-width="2" stroke="red" /> <line x1="192.04966699190743" y1="207.8764014094948" x2="219.71583117200072" y2="187.5236539442506" stroke-width="2" stroke="red" stroke-dasharray="4" /> <circle cx="241.71024637363857" cy="156.3108212899364" r="2" fill="red" /> <circle cx="219.71583117200072" cy="187.5236539442506" r="2" fill="red" /> <circle cx="231.6011566402696" cy="123.48617697218978" r="4" fill="red" /> <line x1="192.04966699190743" y1="207.8764014094948" x2="163.72693627168212" y2="228.71215522496703" stroke-width="2" stroke="red" /> <line x1="97.68995528012132" y1="221.9985998114796" x2="127.34446844487523" y2="240.89080882659476" stroke-width="2" stroke="red" stroke-dasharray="4" /> <circle cx="163.72693627168212" cy="228.71215522496703" r="2" fill="red" /> <circle cx="127.34446844487523" cy="240.89080882659476" r="2" fill="red" /> <circle cx="192.04966699190743" cy="207.8764014094948" r="4" fill="red" /> <line x1="97.68995528012132" y1="221.9985998114796" x2="62.08128405575381" y2="199.31313349531555" stroke-width="2" stroke="red" /> <line x1="50.410716515258656" y1="117.64148026208508" x2="36.562273391513976" y2="157.52667139106578" stroke-width="2" stroke="red" stroke-dasharray="4" /> <circle cx="62.08128405575381" cy="199.31313349531555" r="2" fill="red" /> <circle cx="36.562273391513976" cy="157.52667139106578" r="2" fill="red" /> <circle cx="97.68995528012132" cy="221.9985998114796" r="4" fill="red" /> <line x1="50.410716515258656" y1="117.64148026208508" x2="63.686104967933105" y2="79.4067558952346" stroke-width="2" stroke="red" /> <line x1="150" y1="71.33934425656912" x2="109.54722087460149" y2="70.03445077043551" stroke-width="2" stroke="red" stroke-dasharray="4" /> <circle cx="63.686104967933105" cy="79.4067558952346" r="2" fill="red" /> <circle cx="109.54722087460149" cy="70.03445077043551" r="2" fill="red" /> <circle cx="50.410716515258656" cy="117.64148026208508" r="4" fill="red" /> </g> </svg> 
