<?xml version="1.0" encoding="utf-8"?>
<!-- Generator: Adobe Illustrator 19.0.0, SVG Export Plug-In . SVG Version: 6.00 Build 0)  -->
<svg version="1.1" id="Layer_2" xmlns="http://www.w3.org/2000/svg" xmlns:xlink="http://www.w3.org/1999/xlink" x="0px" y="0px"
	 viewBox="0 0 1000 1000" style="enable-background:new 0 0 1000 1000;" xml:space="preserve">
<style type="text/css">
	.st0{fill:#DDDDDD;}
</style>
<path id="XMLID_146_" class="st0" d="M484.1,412.1c-18.5,0.2-24.4,22.9-17.7,67.6c4.3,28.8,9.5,47.8,15.6,57.2
	c6.1,9.4,13.6,13.8,22.5,13.4c9.6-0.4,16.2-5.5,19.9-15.2c3.7-9.7,3.4-28.3-0.7-56C516.9,434.4,503.8,411.9,484.1,412.1z"/>
<path id="XMLID_147_" class="st0" d="M181.6,543.9L181.6,543.9c-2.4,0.8-4,3.2-3.6,5.7c2,13.7,4,27.4,6,41.1
	c0.5,3.3,3.9,5.3,6.9,4.1c9.9-3.8,17.3-7.9,22.2-12.7c5.9-5.7,8.2-13.1,6.8-22.3C217.5,542.8,204.7,536.9,181.6,543.9z"/>
<path id="XMLID_148_" class="st0" d="M201.7,466.7c-1.4-9.7-5.1-15.8-11.1-18.1c-5.2-2-12.7-2-22.4,0.4c-2.6,0.6-4.3,3.2-3.9,5.8
	c2,13.6,3.9,27.2,5.9,40.7c0.5,3.3,4,5.4,7.1,4.1C195.7,492,203.9,481.5,201.7,466.7z"/>
<path id="XMLID_149_" class="st0" d="M695.4,429.2c-1.4-8.8-5.1-14.7-11.1-17.9c-5.2-2.7-12.6-4.1-22.3-4.2c-2.5,0-4.4,2.2-4,4.6
	c2.1,13.1,4.1,26.2,6.2,39.3c0.3,2.1,2.3,3.6,4.5,3.3C688.7,451.7,697.6,443.1,695.4,429.2z"/>
<path id="XMLID_150_" class="st0" d="M675.4,494.2c-2.3,0.2-4,2.3-3.6,4.6c2.1,13.1,4.2,26.2,6.2,39.3c0.3,2.2,2.4,3.6,4.5,3.3
	c10.9-1.6,19-4.4,24.3-8.3c5.9-4.4,8.2-10.7,6.8-19C711.2,498.7,698.4,492.4,675.4,494.2z"/>
<path id="XMLID_153_" class="st0" d="M943.2,286.2c-59.1-110.8-203.9-124-322.6-165.2C515.4,84.5,409.4,27.8,304.3,64.7
	c-108.1,37.9-174.5,140.7-221.8,245C34,416.6,4.2,534.3,40.6,645.9C79.2,764.2,165.5,864.1,279.5,914c114.6,50.1,244.5,40,361-5.7
	c117.1-46,215.5-129,270.5-242.2C968.9,547.3,1005.3,402.8,943.2,286.2z M258.5,606c-11.8,15.6-28.9,26.1-51.2,32.6
	c-12.9,3.8-25.8,7.9-38.7,12.5c-14.7,5.2-30.5-4.4-32.7-19.8c-9.1-62.8-18.3-125.8-27.4-189c-1.7-11.6,5-22.8,16-26.9
	c11.1-4.2,22.2-8,33.3-11.5c30.3-9.5,53-7.9,68.1,1.8c15.1,9.8,24.1,24.7,26.9,44.2c2.7,18.6-2.6,35.1-15.9,50.6
	c-2.4,2.8-1.2,7.1,2.3,8.2c18.4,6.1,29.2,20.9,32.5,43.4C274.7,572.7,270.3,590.5,258.5,606z M393.3,605c-20.7,2-41.3,4.4-62,7.3
	c-8,1.1-15.4-4.4-16.5-12.4c-10.1-69.2-20.3-138.7-30.4-208.6c-1.2-8.2,4.6-15.8,12.9-16.8c7.4-0.9,14.8-1.7,22.1-2.4
	c7.8-0.8,14.9,4.7,16.1,12.5c7.5,51.7,15.1,103.2,22.6,154.5c1.1,7.7,8.1,13.2,15.9,12.5c4.3-0.4,8.6-0.8,12.9-1.2
	c7.8-0.7,14.7,4.8,15.9,12.5c1.2,8.4,2.5,16.8,3.7,25.2C407.6,596.5,401.6,604.2,393.3,605z M570.7,567.5
	c-11,21.6-29.7,33.3-56.1,34.8c-27.3,1.5-49.7-7.8-67.2-28.5c-17.5-20.6-29.3-51.4-35.4-92.4c-5.6-37.9-2.8-67.9,8.5-89.5
	c11.2-21.6,29.7-32.5,55.4-32.5c27.4,0,49.9,10.6,67.5,31.3c17.6,20.7,29.3,49.8,35.1,87.8C584.4,516.2,581.8,545.8,570.7,567.5z
	 M752.2,557.7c-11.8,13.5-28.9,22-51.2,24.7c-14.9,1.9-29.9,3.4-44.8,4.8c-12.4,1.1-23.6-7.5-25.5-19.8
	c-9-57.8-18.1-116.1-27.1-174.8c-2.2-14.2,8.6-27,22.9-27.3c8.3-0.2,16.7-0.4,25-0.6c30.3-1,53,3.3,68.2,13.5
	c15.1,10.2,24.1,23.7,26.9,41.1c2.7,16.7-2.7,31.5-16.4,44.3c-2.1,2-1.4,5.6,1.4,6.5c19.2,6.6,30.5,19.6,33.8,40.1
	C768.4,528.3,764,544.2,752.2,557.7z M903,522.3c-11.7,16.2-28,28.1-48.9,34.5c-10.7,3.3-21.7,4.5-32.9,3.8c-6.6-0.4-11.9-5.5-13-12
	c-0.9-5.5-1.9-11-2.8-16.6c-1.6-9.5,6.4-17.9,16-16.8c9.1,1,16.9,0.6,23.6-1.3c6.4-1.8,11.2-4.9,14.4-9.1c3.2-4.3,4.3-9,3.4-14.2
	c-0.7-4-2.8-7.3-6.4-10c-3.6-2.7-9.5-5.5-17.7-8.7c-19.8-7.7-34.5-16.7-44.3-26c-9.7-9.3-15.7-20.8-17.9-34.1
	c-3-18.2,0.7-33.9,11.1-47.3c10.4-13.4,25.3-21.6,44.8-25.7c10.6-2.2,21.3-3.2,32.3-2.9c6.9,0.2,12.8,5.2,14,12.1
	c0.8,4.8,1.7,9.5,2.5,14.3c1.6,9.3-5.9,17.5-15.3,16.9c-8-0.5-14.7-0.1-20.3,1.2c-6.3,1.5-11.1,4.1-14.2,7.7
	c-3.2,3.6-4.4,7.9-3.5,12.8c1.5,8.6,11.6,16.5,30.4,22.5c11.2,3.5,23,9.1,35.4,16.7c12.4,7.6,19.8,18.2,22.4,32.5
	C919,489.4,914.7,506.1,903,522.3z"/>
</svg>
