<?xml version="1.0" encoding="utf-8"?>
<!-- Generator: Adobe Illustrator 19.0.0, SVG Export Plug-In . SVG Version: 6.00 Build 0)  -->
<svg version="1.1" id="Layer_1" xmlns="http://www.w3.org/2000/svg" xmlns:xlink="http://www.w3.org/1999/xlink" x="0px" y="0px"
	 viewBox="0 0 1000 1000" style="enable-background:new 0 0 1000 1000;" xml:space="preserve">
<style type="text/css">
	.st0{fill:#EC586B;}
</style>
<path id="XMLID_334_" class="st0" d="M133.8,355.8c0-0.5,0.1-1.1,0.1-1.6c0.5-8.9-4.6-14.6-15.2-17.2c-30.8,2.6-47.4,4.3-50.2,4.1
	c-2.2-13.5-3.2-29.6-3.1-48.5c0.1-7.5,0.1-14.9,0.2-22.4c-0.6-1.2-1.3-2.3-1.9-3.5c17.7-1,30.2-1.1,37.3-0.5c3.7,0.3,7.5,0.6,11.2,1
	c9,0.8,15.5-3.2,19.4-12.1c-0.6-13.9-7.2-21.5-19.9-22.6c-0.7-0.1-1.3-0.1-2-0.2c-7.5-0.6-22.1-0.7-43.8,0.2c0-0.6,0-1.2,0-1.8
	c0.2-17.9,2.3-39,6.5-63.3c3-17,11.8-25.1,26.3-24.1c0.7,0,1.4,0.1,2.1,0.1c10.8,0.8,23.5,2.4,38,4.9c9.4-2.5,14.4-7.2,14.8-14.2
	c0-0.6,0.1-1.2,0.1-1.8c0.8-12.6-11.7-20.2-37.5-22.2c-24.4-1.9-42.9,0.5-55.3,6.7c-23.4,10.5-34.1,57-32.8,139.1
	c0.3,23.2,2,51.9,4.8,86c4.6,20.9,14.5,31.8,29.9,33c6.1-0.6,9.6-0.8,10.5-0.8C112.9,374.4,133.1,368.8,133.8,355.8z"/>
<path id="XMLID_337_" class="st0" d="M173,390.2c26.2-1.5,46.1-7.7,60-19.3c30.9-30.8,50.4-65.8,56.2-105.5c1-6.9,2-13.8,3-20.7
	c1.1-7.4,2.1-19,3-34.8c-3.9-58.4-30.2-91.3-77.3-96.9c-2.7-0.3-5.5-0.6-8.2-1c-24.6-2.8-38.2,15.7-40.7,54.8
	c-0.8,11-4.6,78.4-11.8,202.1C158.1,381.9,163.4,388.9,173,390.2z M204.4,193.5c1.2-13,3.9-29,8.3-47.9
	c36.2,4.4,50.3,38.8,42.4,102.1c-0.1,0.5-0.1,1.1-0.2,1.6c-2.4,19.7-9.5,41.5-20.8,65.4c-14.1,22.5-27.4,35.1-40.3,38
	C199.7,261.3,203.1,208.2,204.4,193.5z"/>
<path id="XMLID_338_" class="st0" d="M310.5,402.7c2.3,0.4,5.9-0.3,10.8-1.9c6.8,1.1,15.6-34.7,25.8-107.7
	c-0.1-8.6-1.8-3.8,8.1-88.2c1-7.4-4.2-13.6-15.6-18.2c-9.2-1.3-16.3,2.4-21.3,11.1c-9,92.8-9.1,97.2-11.2,115.7
	c-0.6,5.2-4.1,30-10.7,74.5C299.4,395.7,304.1,400.6,310.5,402.7z"/>
<path id="XMLID_356_" class="st0" d="M504.1,166.2c-0.7-0.2-1.4-0.3-2-0.5c-26.5-6.4-44.1-9-52.6-8.5c-42.8-9.3-65.7-5.6-68.4,9.3
	c-1.6,8.5,3.4,14.8,14.8,19c1.3,0.3,2.7,0.5,4,0.8c14.9-0.6,25.7,0,32.3,1.4c0.7,0.1,1.3,0.3,2,0.4
	c-15.7,56.1-31.1,112.2-46.2,168.3c-3.1,20-5.1,31.7-5.7,34.9c-1.2,2.7-2.3,5.5-3.5,8.2c1.3,12.4,3.9,19.1,8.1,20.1
	c2.3,0.6,4.6,1.1,6.8,1.7c10.2,2.5,16.7-2.5,19.7-15.2c3.3-13.7,6.5-27.5,9.8-41.2c6.5-27.2,22.8-83.8,50.4-169.6
	c7.2,1.7,14.4,3.4,21.6,5.2c15.9,2.8,25.2-0.9,28-11.2C526.1,179,519.8,171.3,504.1,166.2z"/>
<path id="XMLID_357_" class="st0" d="M824.2,322.7c15.1-32,15.1-51.2-0.3-57.2c-0.6-0.2-1.2-0.5-1.8-0.7c-4.3-1.7-9.5-1.8-15.7-0.3
	c-35.2,27.9-63.4,49-85.5,62.8c3.2-61.9-5.2-95.9-22.3-101.6c-10-3.3-18.6,0.2-25.6,10.5c-11.9,33.1-45,109.4-96.2,229.2
	c-2.7,7.7,0.2,15.1,8.8,22.1c10.2,3.6,18.5-0.4,25.1-12c23.8-54.7,47.9-109.3,72.4-163.8c0.6,0.2,1.3,0.4,1.9,0.7
	c-2.6,6.7-2.7,10.5-0.3,11.4c-4,35.7,0.1,55.7,12.9,60.5c3.5,1.3,8.9,1.4,16.2,0.3c14.7-15.7,35-32.6,61.7-50.2
	c0.6,0.2,1.3,0.5,1.9,0.7c-5.5,12.3-7.6,18.6-6.5,19.1c-5.3,9-9.4,16.5-12.1,22.6c-18.6,41.6-37.1,83.2-55.7,124.7
	c-5,16.4-2.6,26.6,7.2,30.8c11.2,0.7,17.8-1.1,19.9-5.4c1-2.1,6.7-15.5,17-40.4c12.1-25.7,32.7-68,61.9-126.7
	C816.8,340,821.8,327.6,824.2,322.7z"/>
<path id="XMLID_358_" class="st0" d="M944.6,325c-22.3-10.2-40.9-14.4-55.6-12.7C862,314.2,829.7,355,791.7,434
	c-10.8,22.3-22.9,50.3-36.5,83.9c-5.6,21.6-1.5,35.4,12.5,41.9c6,1.5,9.5,2.5,10.3,2.9c37.3,13.9,59.3,15.6,66.2,3.3
	c0.3-0.5,0.6-1,0.9-1.5c4.7-8.3,2.6-15.6-6.3-21.7c-30.6-8.1-47.1-12.3-49.6-13.5c4.4-13.6,11.1-29.4,20.2-47.4
	c3.6-7.1,7.3-14.2,10.9-21.3c0-1.3-0.1-2.7-0.1-4c17.2,5.1,29.1,9.4,35.6,12.4c3.4,1.6,6.8,3.2,10.2,4.8c8.2,3.9,16.2,2.3,24.2-4.9
	c6.1-13.5,3.4-23.1-8.1-28.5c-0.6-0.3-1.2-0.6-1.8-0.8c-6.8-3.2-20.7-8.3-41.6-15c0.3-0.6,0.6-1.1,0.9-1.7
	c8.7-17,20.7-36.5,36.4-58.3c11-15.2,23.2-19.9,36.4-13.9c0.6,0.3,1.3,0.6,1.9,0.9c9.8,4.5,21.1,10.4,33.8,17.8
	c10.2,0.9,17.1-1.9,20.9-8.5c0.3-0.6,0.6-1.1,0.9-1.7C976.5,347.5,968.2,335.9,944.6,325z"/>
<path id="XMLID_359_" class="st0" d="M335.1,167.8c12.7,2.2,24.5-4.9,26.5-15.9c2-11.1-7-22-20-24.2c-13-2.2-24.9,5.1-26.5,16.2
	C313.4,154.9,322.4,165.6,335.1,167.8z"/>
<path id="XMLID_360_" class="st0" d="M409,518.5c-18.6,128.7-102.2,241.3-221.3,294.1c-26.3,11.7-54.1,20.4-82.5,25.9
	c2.8-7.2,5.6-14.4,8.4-21.6c2.3-5.9-3-12.7-8.6-14.1c-6.8-1.7-11.8,2.7-14.1,8.6c-5.8,14.9-11.6,29.7-17.4,44.6
	c-2.4,6.2,3.3,12.3,8.6,14.1c19.6,6.6,39.2,13.2,58.7,19.8c14.2,4.8,19.7-17.9,5.5-22.7c-8.4-2.8-16.8-5.7-25.2-8.5
	c119.7-27.3,223.2-108,276-220.3c17-36.2,28.8-74.8,34.5-114.4C433.8,509.3,411.1,503.6,409,518.5z"/>
</svg>
