<?xml version="1.0" encoding="utf-8"?>
<svg version="1.1" xmlns="http://www.w3.org/2000/svg" xmlns:xlink="http://www.w3.org/1999/xlink" x="0px" y="0px" width="1000px"
	 height="1000px" viewBox="0 0 1000 1000" enable-background="new 0 0 1000 1000" xml:space="preserve">
<path fill="#FFFFFF" d="M475.9,359.4c-25.7,0-44.2,10.9-55.4,32.5c-11.3,21.6-14.1,51.6-8.5,89.5c6.1,41,17.9,71.8,35.4,92.399
	c17.5,20.7,39.899,30,67.199,28.5c26.4-1.5,45.101-13.2,56.101-34.8c11.1-21.7,13.7-51.3,7.8-89c-5.8-38-17.5-67.1-35.1-87.8
	C525.8,370,503.3,359.4,475.9,359.4z M524.4,535.1c-3.7,9.7-10.301,14.801-19.9,15.2c-8.9,0.4-16.4-4-22.5-13.399
	c-6.1-9.4-11.3-28.4-15.6-57.2C459.7,435,465.6,412.3,484.1,412.1c19.7-0.199,32.801,22.301,39.601,67
	C527.8,506.8,528.1,525.4,524.4,535.1z"/>
<path fill="#FFFFFF" d="M386.9,550.4c-4.301,0.399-8.601,0.8-12.9,1.199c-7.8,0.7-14.8-4.8-15.9-12.5
	c-7.5-51.3-15.1-102.8-22.6-154.5c-1.2-7.8-8.3-13.3-16.1-12.5c-7.301,0.7-14.7,1.5-22.101,2.4c-8.3,1-14.1,8.6-12.9,16.8
	c10.1,69.9,20.3,139.4,30.4,208.601c1.101,8,8.5,13.5,16.5,12.399c20.7-2.899,41.3-5.3,62-7.3c8.3-0.8,14.3-8.5,13.2-16.9
	c-1.2-8.399-2.5-16.8-3.7-25.199C401.6,555.2,394.7,549.7,386.9,550.4z"/>
<path fill="#FFFFFF" d="M845,513.9c-6.7,1.899-14.5,2.3-23.6,1.3c-9.601-1.101-17.601,7.3-16,16.8c0.899,5.6,1.899,11.1,2.8,16.6
	c1.1,6.5,6.399,11.601,13,12c11.2,0.7,22.2-0.5,32.899-3.8c20.9-6.399,37.2-18.3,48.9-34.5s16-32.899,13.1-49.7
	c-2.6-14.3-10-24.899-22.399-32.5c-12.4-7.6-24.2-13.199-35.4-16.699c-18.8-6-28.899-13.9-30.399-22.5c-0.9-4.9,0.3-9.2,3.5-12.8
	c3.1-3.6,7.899-6.2,14.199-7.7c5.601-1.3,12.301-1.7,20.301-1.2c9.399,0.6,16.899-7.6,15.3-16.9c-0.8-4.8-1.7-9.5-2.5-14.3
	c-1.2-6.9-7.101-11.9-14-12.1c-11-0.3-21.7,0.7-32.3,2.9c-19.5,4.1-34.4,12.3-44.801,25.7c-10.399,13.4-14.1,29.1-11.1,47.3
	c2.2,13.3,8.2,24.8,17.9,34.101c9.8,9.3,24.5,18.3,44.3,26c8.2,3.199,14.1,6,17.7,8.699c3.6,2.7,5.699,6,6.399,10
	c0.9,5.2-0.2,9.9-3.399,14.2C856.2,509,851.4,512.1,845,513.9z"/>
<path fill="#FFFFFF" d="M746.6,419.3c-2.8-17.399-11.8-30.9-26.899-41.1c-15.2-10.2-37.9-14.5-68.2-13.5c-8.3,0.2-16.7,0.4-25,0.6
	c-14.3,0.3-25.1,13.1-22.9,27.3c9,58.7,18.101,117,27.101,174.8c1.899,12.3,13.1,20.899,25.5,19.8c14.899-1.4,29.899-2.9,44.8-4.8
	c22.3-2.7,39.4-11.2,51.2-24.7s16.2-29.4,13.2-47.5C762.1,489.7,750.8,476.7,731.6,470.1c-2.8-0.899-3.5-4.5-1.399-6.5
	C743.9,450.8,749.3,436,746.6,419.3z M664.2,451c-2.101-13.1-4.101-26.2-6.2-39.3c-0.4-2.4,1.5-4.601,4-4.601
	c9.7,0.101,17.1,1.5,22.3,4.2c6,3.2,9.7,9.101,11.101,17.9c2.199,13.899-6.7,22.5-26.7,25.1C666.5,454.6,664.5,453.1,664.2,451z
		M706.8,533.1c-5.3,3.9-13.399,6.7-24.3,8.301c-2.1,0.3-4.2-1.101-4.5-3.301c-2-13.1-4.1-26.199-6.2-39.3
	c-0.399-2.3,1.3-4.399,3.601-4.6c23-1.8,35.8,4.5,38.199,19.899C715,522.4,712.7,528.7,706.8,533.1z"/>
<path fill="#FFFFFF" d="M168.6,651.1c12.9-4.6,25.8-8.699,38.7-12.5c22.3-6.5,39.4-17,51.2-32.6c11.8-15.5,16.2-33.3,13.2-53.9
	c-3.3-22.5-14.1-37.3-32.5-43.399c-3.5-1.101-4.7-5.4-2.3-8.2c13.3-15.5,18.6-32,15.9-50.6c-2.8-19.5-11.8-34.4-26.9-44.2
	c-15.1-9.7-37.8-11.3-68.1-1.8c-11.1,3.5-22.2,7.3-33.3,11.5c-11,4.1-17.7,15.3-16,26.899c9.1,63.2,18.3,126.2,27.4,189
	C138.1,646.7,153.9,656.3,168.6,651.1z M219.9,559.8c1.4,9.2-0.9,16.601-6.8,22.3c-4.9,4.801-12.3,8.9-22.2,12.7
	c-3,1.2-6.4-0.8-6.9-4.1c-2-13.7-4-27.4-6-41.101c-0.4-2.5,1.2-4.899,3.6-5.699C204.7,536.9,217.5,542.8,219.9,559.8z M168.2,449
	c9.7-2.4,17.2-2.4,22.4-0.4c6,2.301,9.7,8.4,11.1,18.101c2.2,14.8-6,25.3-24.4,32.899c-3.1,1.301-6.6-0.8-7.1-4.1
	c-2-13.5-3.9-27.1-5.9-40.7C163.9,452.2,165.6,449.6,168.2,449z"/>
</svg>
